<svg width="230" height="84" viewBox="0 0 230 84" fill="none" xmlns="http://www.w3.org/2000/svg">
<path d="M143.907 32.0488H152.077V59.0707C152.077 59.6991 152.705 59.6991 152.705 59.6991H158.989C159.618 59.6991 159.618 59.0707 159.618 59.0707V32.0488H167.787C168.415 32.0488 169.044 31.4204 169.044 31.4204V26.3931C169.044 25.7646 168.415 25.7646 167.787 25.7646H143.907C143.279 25.7646 143.279 26.3931 143.279 26.3931V31.4204C143.279 31.4204 143.907 32.0488 143.907 32.0488Z" fill="white"/>
<path d="M184.126 60.3273C189.153 60.3273 191.667 59.6989 193.552 59.6989C194.181 59.6989 194.181 59.0704 194.181 58.442V54.6715C194.181 54.0431 193.552 54.0431 193.552 54.0431H183.498C180.984 54.0431 180.355 53.4147 180.355 50.901V45.2453H192.924C193.552 45.2453 193.552 44.6169 193.552 44.6169V40.218C193.552 39.5896 192.924 39.5896 192.924 39.5896H180.355V35.1906C180.355 32.677 180.984 32.0486 183.498 32.0486H193.552C194.181 32.0486 194.181 31.4201 194.181 31.4201V26.3928C194.181 25.7644 194.181 25.7644 193.552 25.7644C192.295 25.136 189.153 25.136 184.126 25.136C177.842 25.136 172.814 26.3928 172.814 35.1906V50.2726C172.814 59.0704 178.47 60.3273 184.126 60.3273Z" fill="white"/>
<path d="M209.262 42.1047L199.208 59.0719C199.208 59.0719 199.208 59.0719 199.208 59.7003C199.208 60.3288 199.208 60.3288 199.836 60.3288H206.749C207.377 60.3288 207.377 59.7003 208.005 59.7003L214.29 49.0173L220.574 59.0719C221.202 59.7003 221.202 59.7003 221.831 59.7003H229.372C230 59.7003 230 59.7003 230 59.0719V58.4435L219.317 41.4763L229.372 25.1374C229.372 24.509 228.743 24.509 228.743 24.509H221.831C221.202 25.1374 220.574 25.7659 220.574 26.3943L214.918 35.8205L208.634 26.3943C208.634 25.7659 208.005 25.1374 207.377 25.1374H199.836C199.208 25.1374 199.208 25.1374 199.208 25.7659L209.262 42.1047Z" fill="white"/>
<path d="M116.885 55.3002C118.142 58.4423 120.656 60.3275 124.426 60.3275C127.568 60.3275 130.71 58.4423 131.967 55.3002C131.967 54.6718 140.137 26.3931 140.137 26.3931C140.137 25.7646 140.137 25.7646 139.508 25.7646H132.596C131.967 25.7646 131.967 25.7646 131.967 26.3931L125.055 51.5297C125.055 52.1581 125.055 52.1581 124.426 52.1581C123.798 52.1581 123.798 52.1581 123.798 51.5297L116.885 26.3931C116.885 25.7646 116.257 25.7646 116.257 25.7646H109.344C108.716 25.7646 108.716 26.3931 108.716 26.3931C108.087 26.3931 116.257 55.3002 116.885 55.3002Z" fill="white"/>
<path d="M90.4919 0H17.5956C11.9399 0 8.16939 6.28416 10.6831 11.3115L18.224 25.1366H5.02732C2.51366 25.1366 0 27.0219 0 30.164C0.628416 30.164 0.628406 31.4208 0.628406 32.0492L23.8798 76.6668C25.1366 79.1804 28.2787 79.8088 30.164 78.552C30.7924 77.9236 31.4208 77.2952 32.0492 76.6668L38.3334 64.7269L46.5028 79.8088C49.0164 84.8362 57.1859 84.8362 59.6995 79.8088L96.1476 11.3115C99.9181 5.65574 96.1477 0 90.4919 0ZM57.8142 29.5356L42.1039 59.0711C41.4754 60.9564 39.5902 60.9564 37.705 60.3279C37.0765 60.3279 36.4481 59.6995 36.4481 59.0711L20.7377 29.5356C20.1093 27.6503 20.7377 25.7651 21.9946 25.1366C22.623 25.1366 23.2514 24.5082 23.2514 24.5082H54.6722C56.5574 24.5082 57.8142 25.7651 57.8142 27.6503C58.4427 28.2787 58.4427 28.9071 57.8142 29.5356Z" fill="white"/>
</svg>
